<svg xmlns="http://www.w3.org/2000/svg" width="47" height="47" viewBox="0 0 47 47">
  <g id="Group_11618" data-name="Group 11618" transform="translate(-848 -5761)">
    <rect id="Rectangle_2982" data-name="Rectangle 2982" width="47" height="47" rx="5" transform="translate(848 5761)" fill="#ebe3ff"/>
    <g id="arrow-left-short" transform="translate(853.501 5766.5)">
      <path id="Path_845" data-name="Path 845" d="M17.672,10.454a1.125,1.125,0,0,1,0,1.593L11.716,18l5.956,5.954a1.126,1.126,0,0,1-1.593,1.593L9.329,18.8a1.125,1.125,0,0,1,0-1.593l6.75-6.75a1.125,1.125,0,0,1,1.593,0Z" fill="#8153ff" fill-rule="evenodd"/>
      <path id="Path_846" data-name="Path 846" d="M10.125,18a1.125,1.125,0,0,1,1.125-1.125H25.875a1.125,1.125,0,0,1,0,2.25H11.25A1.125,1.125,0,0,1,10.125,18Z" fill="#8153ff" fill-rule="evenodd"/>
    </g>
  </g>
</svg>
