<svg xmlns="http://www.w3.org/2000/svg" width="47" height="47" viewBox="0 0 47 47">
  <g id="Group_11617" data-name="Group 11617" transform="translate(-909 -5761)">
    <rect id="Rectangle_2981" data-name="Rectangle 2981" width="47" height="47" rx="5" transform="translate(909 5761)" fill="#ebe3ff"/>
    <g id="arrow-left-short" transform="translate(923.499 5776.624)">
      <path id="Path_845" data-name="Path 845" d="M9.329,10.454a1.125,1.125,0,0,0,0,1.593L15.285,18,9.329,23.954a1.126,1.126,0,0,0,1.593,1.593l6.75-6.75a1.125,1.125,0,0,0,0-1.593l-6.75-6.75a1.125,1.125,0,0,0-1.593,0Z" transform="translate(-0.001 -10.123)" fill="#8153ff" fill-rule="evenodd"/>
      <path id="Path_846" data-name="Path 846" d="M27,18a1.125,1.125,0,0,0-1.125-1.125H11.25a1.125,1.125,0,1,0,0,2.25H25.875A1.125,1.125,0,0,0,27,18Z" transform="translate(-10.125 -10.123)" fill="#8153ff" fill-rule="evenodd"/>
    </g>
  </g>
</svg>
