<svg xmlns="http://www.w3.org/2000/svg" width="14.821" height="14.821" viewBox="0 0 14.821 14.821">
  <g id="bx-copyright" transform="translate(-3 -3)">
    <path id="Path_847" data-name="Path 847" d="M10.411,17.821a7.509,7.509,0,0,0,7.411-7.411A7.509,7.509,0,0,0,10.411,3,7.509,7.509,0,0,0,3,10.411,7.509,7.509,0,0,0,10.411,17.821Zm0-13.339a6.007,6.007,0,0,1,5.929,5.929,6.007,6.007,0,0,1-5.929,5.929,6.007,6.007,0,0,1-5.929-5.929A6.007,6.007,0,0,1,10.411,4.482Z" fill="#fff"/>
    <path id="Path_848" data-name="Path 848" d="M14.205,17.911a3.947,3.947,0,0,0,2.747-.957L15.9,15.9a2.478,2.478,0,0,1-1.7.525,2.223,2.223,0,0,1,0-4.446,2.482,2.482,0,0,1,1.7.524l1.048-1.048a3.946,3.946,0,0,0-2.747-.958,3.705,3.705,0,0,0,0,7.411Z" transform="translate(-3.795 -3.795)" fill="#fff"/>
  </g>
</svg>
