<svg xmlns="http://www.w3.org/2000/svg" width="9.145" height="11.639" viewBox="0 0 9.145 11.639">
  <g id="document-text" transform="translate(-5.625 -2.25)">
    <path id="Path_783" data-name="Path 783" d="M14.666,7.238H11.029A1.247,1.247,0,0,1,9.782,5.991V2.354a.1.1,0,0,0-.1-.1H7.288A1.663,1.663,0,0,0,5.625,3.913v8.313a1.663,1.663,0,0,0,1.663,1.663h5.819a1.663,1.663,0,0,0,1.663-1.663V7.342A.1.1,0,0,0,14.666,7.238Zm-2.39,4.157H8.119a.416.416,0,1,1,0-.831h4.157a.416.416,0,0,1,0,.831Zm0-2.078H8.119a.416.416,0,1,1,0-.831h4.157a.416.416,0,0,1,0,.831Z" transform="translate(0)" fill="#f70"/>
    <path id="Path_784" data-name="Path 784" d="M22.95,6.859,19.214,3.123a.052.052,0,0,0-.089.037V6.532a.416.416,0,0,0,.416.416h3.372a.052.052,0,0,0,.037-.089Z" transform="translate(-8.512 -0.541)" fill="#f70"/>
  </g>
</svg>
