<svg xmlns="http://www.w3.org/2000/svg" width="16.673" height="16.301" viewBox="0 0 16.673 16.301">
  <path id="phone-handset-line" d="M13.665,17.653a2.235,2.235,0,0,1-.474-.052,16.058,16.058,0,0,1-7.87-4.144,15.49,15.49,0,0,1-4.262-7.7A2.169,2.169,0,0,1,1.7,3.735L3.592,1.912a.926.926,0,0,1,1.416.156l2.368,3.5a.758.758,0,0,1-.052.9L6.135,7.888A8.969,8.969,0,0,0,8.11,10.678a9.121,9.121,0,0,0,2.874,1.937l1.473-1.17a.777.777,0,0,1,.881-.057L16.913,13.7a.947.947,0,0,1,.194,1.473L15.261,17a2.245,2.245,0,0,1-1.6.654ZM4.246,2.594,2.352,4.417A1.2,1.2,0,0,0,2,5.554,14.538,14.538,0,0,0,5.979,12.78a15.106,15.106,0,0,0,7.406,3.9,1.3,1.3,0,0,0,1.184-.35L16.416,14.5l-3.452-2.23-1.582,1.26a.474.474,0,0,1-.436.081A9.5,9.5,0,0,1,7.461,11.36,9.23,9.23,0,0,1,5.155,7.95a.474.474,0,0,1,.114-.45L6.547,5.97Z" transform="translate(-0.854 -1.503)" fill="#707070" stroke="#707070" stroke-width="0.3"/>
</svg>
