<svg xmlns="http://www.w3.org/2000/svg" width="12.539" height="11.639" viewBox="0 0 12.539 11.639">
  <g id="users-solid" transform="translate(-4.46 -6.005)">
    <path id="Path_789" data-name="Path 789" d="M7.95,16.137h-.4A4.013,4.013,0,0,0,4.571,17.3l-.111.13v3.833H6.349V19.09L6.6,18.8l.116-.134A5.092,5.092,0,0,1,8.9,17.345a3.05,3.05,0,0,1-.949-1.208Z" transform="translate(0 -5.441)" fill="#f70"/>
    <path id="Path_790" data-name="Path 790" d="M26.227,17.273a4.013,4.013,0,0,0-2.976-1.166,4.846,4.846,0,0,0-.5.028,3.05,3.05,0,0,1-.926,1.134,5.05,5.05,0,0,1,2.314,1.389l.116.13.25.287v2.18h1.824V17.4Z" transform="translate(-9.325 -5.424)" fill="#f70"/>
    <path id="Path_791" data-name="Path 791" d="M8.9,9.818h.143a2.986,2.986,0,0,1,1.44-2.911A1.893,1.893,0,1,0,8.9,9.836Z" transform="translate(-1.368 -0.024)" fill="#f70"/>
    <path id="Path_792" data-name="Path 792" d="M22.84,9.447a3.026,3.026,0,0,1,0,.319,1.893,1.893,0,0,0,.268.023H23.2A1.893,1.893,0,1,0,21.47,6.929a3.023,3.023,0,0,1,1.37,2.518Z" transform="translate(-9.137)" fill="#f70"/>
    <path id="Path_793" data-name="Path 793" d="M17.538,11.049A2.069,2.069,0,1,1,15.469,8.98,2.069,2.069,0,0,1,17.538,11.049Z" transform="translate(-4.802 -1.598)" fill="#f70"/>
    <path id="Path_794" data-name="Path 794" d="M14.157,20.3a4.485,4.485,0,0,0-3.291,1.25l-.116.13V24.6a.727.727,0,0,0,.741.713h5.318a.727.727,0,0,0,.741-.713V21.684l-.111-.139A4.434,4.434,0,0,0,14.157,20.3Z" transform="translate(-3.379 -7.673)" fill="#f70"/>
  </g>
</svg>
